<mxfile host="app.diagrams.net" modified="2023-04-01T23:51:23.165Z" agent="5.0 (Windows NT 10.0; Win64; x64) AppleWebKit/537.36 (KHTML, like Gecko) Chrome/111.0.0.0 Safari/537.36" etag="PW9OjxX5uzdP5KVKWeNM" version="20.8.20" type="github">
  <diagram name="Page-1" id="VmqbNAQ8ySxYOdTu0RUP">
    <mxGraphModel dx="4198" dy="2712" grid="1" gridSize="10" guides="1" tooltips="1" connect="1" arrows="1" fold="1" page="1" pageScale="1" pageWidth="850" pageHeight="1100" math="0" shadow="0">
      <root>
        <mxCell id="0" />
        <mxCell id="1" parent="0" />
        <mxCell id="bt7QYrZST3vWygyTc_tJ-25" value="" style="whiteSpace=wrap;html=1;aspect=fixed;" vertex="1" parent="1">
          <mxGeometry x="120" y="-120" width="1240" height="1240" as="geometry" />
        </mxCell>
        <mxCell id="bt7QYrZST3vWygyTc_tJ-1" value="PizzaMachine&lt;br&gt;Interface&lt;br&gt;{getCost();&lt;br style=&quot;border-color: var(--border-color);&quot;&gt;getDescription();&lt;br&gt;}" style="rounded=0;whiteSpace=wrap;html=1;" vertex="1" parent="1">
          <mxGeometry x="680" y="310" width="140" height="90" as="geometry" />
        </mxCell>
        <mxCell id="bt7QYrZST3vWygyTc_tJ-2" value="Farmhouse&amp;nbsp;&lt;br&gt;implements PM" style="rounded=0;whiteSpace=wrap;html=1;" vertex="1" parent="1">
          <mxGeometry x="200" y="480" width="100" height="40" as="geometry" />
        </mxCell>
        <mxCell id="bt7QYrZST3vWygyTc_tJ-3" value="Margherita&amp;nbsp;&lt;br style=&quot;border-color: var(--border-color);&quot;&gt;implements PM" style="rounded=0;whiteSpace=wrap;html=1;" vertex="1" parent="1">
          <mxGeometry x="340" y="480" width="100" height="40" as="geometry" />
        </mxCell>
        <mxCell id="bt7QYrZST3vWygyTc_tJ-4" value="Pepperoni&amp;nbsp;&lt;br style=&quot;border-color: var(--border-color);&quot;&gt;implements PM" style="rounded=0;whiteSpace=wrap;html=1;" vertex="1" parent="1">
          <mxGeometry x="480" y="480" width="100" height="40" as="geometry" />
        </mxCell>
        <mxCell id="bt7QYrZST3vWygyTc_tJ-5" value="BBQChicken&amp;nbsp;&lt;br style=&quot;border-color: var(--border-color);&quot;&gt;implements PM" style="rounded=0;whiteSpace=wrap;html=1;" vertex="1" parent="1">
          <mxGeometry x="620" y="480" width="100" height="40" as="geometry" />
        </mxCell>
        <mxCell id="bt7QYrZST3vWygyTc_tJ-6" value="Olive&amp;nbsp;&lt;br&gt;Add On&lt;br&gt;&lt;span id=&quot;docs-internal-guid-4011a0b1-7fff-b4d0-f305-c6e4db0675ac&quot;&gt;&lt;/span&gt;" style="rounded=0;whiteSpace=wrap;html=1;" vertex="1" parent="1">
          <mxGeometry x="760" y="480" width="100" height="40" as="geometry" />
        </mxCell>
        <mxCell id="bt7QYrZST3vWygyTc_tJ-7" value="Tomato&amp;nbsp;&lt;br&gt;Add On" style="rounded=0;whiteSpace=wrap;html=1;" vertex="1" parent="1">
          <mxGeometry x="900" y="480" width="100" height="40" as="geometry" />
        </mxCell>
        <mxCell id="bt7QYrZST3vWygyTc_tJ-8" value="Cheese&lt;br&gt;Add On" style="rounded=0;whiteSpace=wrap;html=1;" vertex="1" parent="1">
          <mxGeometry x="1040" y="480" width="100" height="40" as="geometry" />
        </mxCell>
        <mxCell id="bt7QYrZST3vWygyTc_tJ-9" value="Paneer&lt;br&gt;Add On" style="rounded=0;whiteSpace=wrap;html=1;" vertex="1" parent="1">
          <mxGeometry x="1180" y="480" width="100" height="40" as="geometry" />
        </mxCell>
        <mxCell id="bt7QYrZST3vWygyTc_tJ-12" value="" style="endArrow=classic;html=1;rounded=0;entryX=0.58;entryY=-0.125;entryDx=0;entryDy=0;entryPerimeter=0;" edge="1" parent="1" target="bt7QYrZST3vWygyTc_tJ-2">
          <mxGeometry width="50" height="50" relative="1" as="geometry">
            <mxPoint x="740" y="400" as="sourcePoint" />
            <mxPoint x="240" y="470" as="targetPoint" />
          </mxGeometry>
        </mxCell>
        <mxCell id="bt7QYrZST3vWygyTc_tJ-13" value="" style="endArrow=classic;html=1;rounded=0;entryX=0.5;entryY=0;entryDx=0;entryDy=0;exitX=0.5;exitY=1;exitDx=0;exitDy=0;" edge="1" parent="1" source="bt7QYrZST3vWygyTc_tJ-1" target="bt7QYrZST3vWygyTc_tJ-3">
          <mxGeometry width="50" height="50" relative="1" as="geometry">
            <mxPoint x="420" y="390" as="sourcePoint" />
            <mxPoint x="370" y="470" as="targetPoint" />
          </mxGeometry>
        </mxCell>
        <mxCell id="bt7QYrZST3vWygyTc_tJ-15" value="" style="endArrow=classic;html=1;rounded=0;entryX=0.5;entryY=0;entryDx=0;entryDy=0;" edge="1" parent="1" target="bt7QYrZST3vWygyTc_tJ-4">
          <mxGeometry width="50" height="50" relative="1" as="geometry">
            <mxPoint x="740" y="400" as="sourcePoint" />
            <mxPoint x="490" y="470" as="targetPoint" />
          </mxGeometry>
        </mxCell>
        <mxCell id="bt7QYrZST3vWygyTc_tJ-16" value="" style="endArrow=classic;html=1;rounded=0;entryX=0.5;entryY=0;entryDx=0;entryDy=0;exitX=0.5;exitY=1;exitDx=0;exitDy=0;" edge="1" parent="1" source="bt7QYrZST3vWygyTc_tJ-1" target="bt7QYrZST3vWygyTc_tJ-5">
          <mxGeometry width="50" height="50" relative="1" as="geometry">
            <mxPoint x="670" y="380" as="sourcePoint" />
            <mxPoint x="620" y="460" as="targetPoint" />
          </mxGeometry>
        </mxCell>
        <mxCell id="bt7QYrZST3vWygyTc_tJ-17" value="" style="endArrow=classic;html=1;rounded=0;entryX=0.5;entryY=0;entryDx=0;entryDy=0;exitX=0.5;exitY=1;exitDx=0;exitDy=0;" edge="1" parent="1" source="bt7QYrZST3vWygyTc_tJ-1" target="bt7QYrZST3vWygyTc_tJ-6">
          <mxGeometry width="50" height="50" relative="1" as="geometry">
            <mxPoint x="870" y="380" as="sourcePoint" />
            <mxPoint x="820" y="460" as="targetPoint" />
          </mxGeometry>
        </mxCell>
        <mxCell id="bt7QYrZST3vWygyTc_tJ-18" value="" style="endArrow=classic;html=1;rounded=0;entryX=0.44;entryY=-0.05;entryDx=0;entryDy=0;entryPerimeter=0;exitX=0.5;exitY=1;exitDx=0;exitDy=0;" edge="1" parent="1" source="bt7QYrZST3vWygyTc_tJ-1" target="bt7QYrZST3vWygyTc_tJ-7">
          <mxGeometry width="50" height="50" relative="1" as="geometry">
            <mxPoint x="980" y="370" as="sourcePoint" />
            <mxPoint x="930" y="450" as="targetPoint" />
          </mxGeometry>
        </mxCell>
        <mxCell id="bt7QYrZST3vWygyTc_tJ-19" value="" style="endArrow=classic;html=1;rounded=0;entryX=0.5;entryY=0;entryDx=0;entryDy=0;exitX=0.5;exitY=1;exitDx=0;exitDy=0;" edge="1" parent="1" source="bt7QYrZST3vWygyTc_tJ-1" target="bt7QYrZST3vWygyTc_tJ-8">
          <mxGeometry width="50" height="50" relative="1" as="geometry">
            <mxPoint x="1120" y="390" as="sourcePoint" />
            <mxPoint x="1070" y="470" as="targetPoint" />
          </mxGeometry>
        </mxCell>
        <mxCell id="bt7QYrZST3vWygyTc_tJ-20" value="" style="endArrow=classic;html=1;rounded=0;entryX=0.5;entryY=0;entryDx=0;entryDy=0;exitX=0.5;exitY=1;exitDx=0;exitDy=0;" edge="1" parent="1" source="bt7QYrZST3vWygyTc_tJ-1" target="bt7QYrZST3vWygyTc_tJ-9">
          <mxGeometry width="50" height="50" relative="1" as="geometry">
            <mxPoint x="1270" y="380" as="sourcePoint" />
            <mxPoint x="1220" y="460" as="targetPoint" />
          </mxGeometry>
        </mxCell>
        <mxCell id="bt7QYrZST3vWygyTc_tJ-21" value="&lt;span id=&quot;docs-internal-guid-aced465d-7fff-5388-8063-2dc90aaff3e8&quot;&gt;&lt;/span&gt;" style="text;html=1;strokeColor=none;fillColor=none;align=center;verticalAlign=middle;whiteSpace=wrap;rounded=0;" vertex="1" parent="1">
          <mxGeometry x="390" y="400" width="60" height="30" as="geometry" />
        </mxCell>
        <mxCell id="bt7QYrZST3vWygyTc_tJ-27" value="Text" style="text;html=1;strokeColor=none;fillColor=none;align=center;verticalAlign=middle;whiteSpace=wrap;rounded=0;" vertex="1" parent="1">
          <mxGeometry x="-340" y="970" width="60" height="30" as="geometry" />
        </mxCell>
        <mxCell id="bt7QYrZST3vWygyTc_tJ-28" value="&lt;b&gt;&lt;font style=&quot;font-size: 72px;&quot; face=&quot;Times New Roman&quot;&gt;Pizza_Machine Class Diagram&lt;/font&gt;&lt;/b&gt;" style="text;html=1;strokeColor=none;fillColor=none;align=center;verticalAlign=middle;whiteSpace=wrap;rounded=0;" vertex="1" parent="1">
          <mxGeometry x="430" y="80" width="640" height="30" as="geometry" />
        </mxCell>
      </root>
    </mxGraphModel>
  </diagram>
</mxfile>
